<?xml version="1.0" encoding="utf-8"?>
<!-- Generator: Adobe Illustrator 23.0.3, SVG Export Plug-In . SVG Version: 6.00 Build 0)  -->
<svg version="1.1" id="Слой_1" xmlns="http://www.w3.org/2000/svg" xmlns:xlink="http://www.w3.org/1999/xlink" x="0px" y="0px"
	 viewBox="0 0 150 30" style="enable-background:new 0 0 150 30;" xml:space="preserve">
<style type="text/css">
	.st0{fill:#FC8E21;}
	.st1{fill:#FF2D0A;}
</style>
<g>
	<g>
		<path class="st0" d="M31.9,9.4c0-3.1-1.7-3.7-3.5-3.7c-3.5,0-6.4,3.5-6.4,8.4c0,3.8,1.6,5.8,4.1,5.8c1,0,1.9-0.4,2.1-1.8l0.4-1.9
			c0.3-1.8,0.1-1.9-2.2-2.1l0.2-0.8h7.1l-0.2,0.9c-1.3,0.1-1.5,0.3-1.8,2.1l-0.3,1.9c-0.1,0.7-0.2,1.4-0.1,1.8
			c-1.4,0.4-3.3,0.9-5.2,0.9c-4.6,0-7.6-2.5-7.6-6.9c0-5.7,4.4-9.4,10.3-9.4c2,0,3.8,0.4,4.7,0.6C33.2,6,33,7.6,32.8,9.3L31.9,9.4z"
			/>
		<path class="st1" d="M45.2,13.5c0,2.5-1.2,5-3.5,6.4c-0.9,0.5-2.1,1-3.3,1c-2.9,0-3.7-2.2-3.7-3.9c0-3.4,2-5.8,4.4-6.8
			c0.8-0.3,1.7-0.5,2.4-0.5C44,9.6,45.2,11.2,45.2,13.5z M37.9,17.1c0,1.9,0.6,2.7,1.5,2.7c1.7,0,2.6-3.5,2.6-6.4
			c0-1.9-0.6-2.7-1.4-2.7C38.5,10.7,37.9,15.3,37.9,17.1z"/>
		<path class="st0" d="M60.8,9.4c0-3.1-1.7-3.7-3.5-3.7c-3.5,0-6.4,3.5-6.4,8.4c0,3.8,1.6,5.8,4.1,5.8c1,0,1.8-0.4,2.1-1.8l0.4-1.9
			c0.3-1.8,0.1-1.9-2.2-2.1l0.2-0.8h7.2l-0.2,0.9c-1.3,0.1-1.5,0.3-1.8,2.1l-0.3,1.9c-0.1,0.7-0.2,1.4-0.1,1.8
			c-1.4,0.4-3.3,0.9-5.2,0.9c-4.6,0-7.6-2.5-7.6-6.9c0-5.7,4.4-9.4,10.3-9.4c2,0,3.8,0.4,4.7,0.6C62.2,6,62,7.6,61.8,9.3L60.8,9.4z"
			/>
		<path class="st1" d="M75.1,18.2c-1.3,1.7-3.1,2.7-4.1,2.7c-0.8,0-1.2-0.7-0.8-3l0.2-0.8c-0.9,1.3-2,2.3-2.6,2.8
			c-0.8,0.7-1.5,1-2.3,1c-1,0-1.8-1-1.8-2.9c0-2.3,0.9-4.8,2.6-6.3c1.3-1.2,3.2-2,5-2c1.3,0,2.8,0.4,3.4,0.4
			c-0.5,1.9-1.3,5.5-1.6,7.5c-0.1,0.6-0.1,0.9,0.1,0.9c0.3,0,0.8-0.4,1.5-1.1L75.1,18.2z M70.1,16.2c0.4-0.6,0.8-1.3,1-2.3
			c0.2-1,0.5-2.2,0.6-2.9c-0.3-0.2-1.1-0.3-1.5-0.3c-2.2,0-3.3,4-3.2,6.5c0,1,0.3,1.4,0.6,1.4C68,18.7,68.9,18,70.1,16.2z"/>
		<path class="st0" d="M90.2,5c3.5,0,5.4,1.6,5.4,4.3c0,3.2-2.6,5.2-6.1,5.2c-0.2,0-0.6-0.1-0.8-0.1L87.2,14l-0.7,3.6
			c-0.3,1.7-0.3,1.9,1.9,2.1l-0.2,0.8h-7.4l0.2-0.8c1.7-0.1,2-0.3,2.4-2.2l1.8-9.3c0.4-2,0.3-2.2-1.7-2.4L83.8,5H90.2z M87.4,13.1
			c0.3,0.1,0.8,0.2,1.4,0.2c2.1,0,3.5-1.8,3.5-4.4C92.3,6.8,91.4,6,90,6c-0.9,0-1.3,0.1-1.5,1.5L87.4,13.1z"/>
		<path class="st1" d="M101.7,18.2c-1.5,1.8-3.2,2.6-4.2,2.6c-0.8,0-1.2-0.7-0.8-2.4c0.5-1.9,1-4,1.4-5.6c0.2-0.7,0.1-0.9-0.1-0.9
			c-0.2,0-0.8,0.3-1.3,0.8L96.3,12c1.6-1.6,3.3-2.4,4.2-2.4c0.8,0,1,0.7,0.5,3c-0.4,1.5-0.9,3.6-1.3,5c-0.2,0.6-0.2,0.9,0,0.9
			c0.2,0,0.8-0.3,1.6-1.1L101.7,18.2z M102.1,6.2c0,1-0.7,1.9-1.8,1.9c-0.9,0-1.5-0.6-1.5-1.5c0-0.8,0.7-1.8,1.9-1.8
			C101.7,4.8,102.1,5.4,102.1,6.2z"/>
		<path class="st0" d="M113.3,9.8c-2.1,2.7-6,6.1-7.7,7.8c0.4,0,1,0.1,1.8,0.4c0.8,0.2,1.5,0.4,2.2,0.4c0.6,0,1.3-0.2,2.4-2l0.7,0.5
			c-1.3,2.8-2.7,4.1-3.9,4.1c-1,0-2.4-0.8-3.3-1.2c-0.8-0.4-1.3-0.5-1.7-0.2c-0.3,0.2-0.6,0.7-0.8,0.9c-0.1,0.2-0.2,0.2-0.3,0.2
			c-0.2,0-0.5-0.3-0.5-0.7c0-0.3,0.3-0.9,1.5-2.2c1.3-1.3,3.9-3.7,6-5.8c-0.4,0.1-0.9,0.1-1.4,0c-0.6,0-1.7-0.1-2.2-0.1
			c-0.9,0-1.3,0.3-2.2,1.7l-0.8-0.5c1.1-2.5,2.2-3.7,3.1-3.7c1,0,3.7,0.6,4.7,0.6c0.4,0,1-0.4,1.6-1L113.3,9.8z"/>
		<path class="st0" d="M124.1,9.8c-2.1,2.7-6,6.1-7.7,7.8c0.4,0,1,0.1,1.8,0.4c0.8,0.2,1.5,0.4,2.2,0.4c0.6,0,1.3-0.2,2.4-2l0.7,0.5
			c-1.3,2.8-2.7,4.1-3.9,4.1c-1,0-2.4-0.8-3.3-1.2c-0.8-0.4-1.3-0.5-1.7-0.2c-0.3,0.2-0.6,0.7-0.8,0.9c-0.1,0.2-0.2,0.2-0.3,0.2
			c-0.2,0-0.5-0.3-0.5-0.7c0-0.3,0.3-0.9,1.5-2.2c1.3-1.3,3.9-3.7,6-5.8c-0.4,0.1-0.9,0.1-1.4,0c-0.6,0-1.7-0.1-2.2-0.1
			c-0.9,0-1.3,0.3-2.2,1.7l-0.8-0.5c1.1-2.5,2.2-3.7,3.1-3.7c1,0,3.7,0.6,4.7,0.6c0.4,0,1-0.4,1.6-1L124.1,9.8z"/>
		<path class="st1" d="M136.2,18.2c-1.3,1.7-3.1,2.7-4.1,2.7c-0.8,0-1.2-0.7-0.8-3l0.2-0.8c-0.9,1.3-2,2.3-2.6,2.8
			c-0.8,0.7-1.5,1-2.3,1c-1,0-1.8-1-1.8-2.9c0-2.3,0.9-4.8,2.6-6.3c1.3-1.2,3.2-2,5-2c1.3,0,2.8,0.4,3.4,0.4
			c-0.5,1.9-1.3,5.5-1.6,7.5c-0.1,0.6-0.1,0.9,0.1,0.9c0.3,0,0.8-0.4,1.5-1.1L136.2,18.2z M131.1,16.2c0.4-0.6,0.8-1.3,1-2.3
			c0.2-1,0.5-2.2,0.6-2.9c-0.3-0.2-1.1-0.3-1.5-0.3c-2.2,0-3.3,4-3.2,6.5c0,1,0.3,1.4,0.6,1.4C129,18.7,129.9,18,131.1,16.2z"/>
	</g>
</g>
<g>
	<g>
		<path d="M150.9,20.8l3.2,6.9c0.4,1,0.8,1.9,1.2,2.9h0.1c0.3-0.8,0.6-1.8,1-2.9l2.5-6.8h2.2l-3.4,8.3c-0.9,2.2-1.9,4.6-3,6.1
			c-1.1,1.3-2.2,2-3.7,2c-0.5,0-0.9,0-1.2-0.1l0.2-1.7c0.2,0,0.4,0.1,0.8,0.1c1.7,0,2.7-1.6,3.2-2.8c0.2-0.4,0.1-0.6-0.1-1
			l-5.4-10.9C148.5,20.8,150.9,20.8,150.9,20.8z"/>
		<path d="M175.4,37h-6.9l0.2-0.8c1.7-0.2,1.7-0.5,1.6-1.6c-0.1-0.8-0.3-1.7-0.4-2.7h-4.5c-0.5,0.8-1,1.8-1.4,2.6
			c-0.5,1.1-0.5,1.4,1.6,1.6l-0.2,0.8h-5.9l0.2-0.8c1.8-0.2,2-0.4,3.4-2.7l7-12.1l1.1-0.2c1,5.9,1.7,9.6,2.2,12.6
			c0.3,1.9,0.5,2.2,2.3,2.4L175.4,37z M168.9,25.4L168.9,25.4c-1,1.8-2,3.6-2.9,5.3h3.8L168.9,25.4z"/>
		<path d="M185.5,25.4V37h-2.1V27h-4v3c0,3.3-0.3,5.5-1.8,6.4c-0.6,0.5-1.2,0.7-2.3,0.7l-0.2-1.7c0.4-0.1,0.9-0.2,1.1-0.5
			c1.1-0.8,1.2-2.4,1.2-5v-4.7L185.5,25.4L185.5,25.4z"/>
		<path d="M199.5,31.1c0,4.3-3,6.2-5.8,6.2c-3.1,0-5.6-2.3-5.6-6c0-3.9,2.5-6.2,5.8-6.2C197.2,25.1,199.5,27.5,199.5,31.1z
			 M190.3,31.2c0,2.5,1.5,4.5,3.5,4.5c2,0,3.5-1.9,3.5-4.5c0-2-1-4.5-3.5-4.5C191.4,26.7,190.3,29,190.3,31.2z"/>
		<path d="M202.1,25.5c0.8-0.1,2.3-0.3,3.7-0.3c1.9,0,5.2,0.3,5.2,2.9c0,1.4-1.1,2.3-2.4,2.6v0c1.7,0.2,2.9,1.2,2.9,2.9
			c0,3-3.8,3.4-6.1,3.4c-1.3,0-2.6-0.1-3.3-0.1L202.1,25.5L202.1,25.5z M204.1,35.6c0.6,0.1,1,0.1,1.7,0.1c1.4,0,3.5-0.3,3.5-2
			s-1.7-2-3.7-2h-1.5L204.1,35.6L204.1,35.6z M204.1,30.3h1.6c1.6,0,3.2-0.5,3.2-1.8c0-1.1-1-1.7-3.1-1.7c-0.7,0-1.1,0-1.6,0.1V30.3
			z"/>
		<path d="M216.1,25.4v4.9c0,1.8,0,3-0.1,4.7l0.1,0c0.7-1.4,1.1-2.2,1.9-3.6l3.6-6h2.5V37h-2v-4.9c0-1.9,0.1-2.9,0.1-4.8h-0.1
			c-0.7,1.5-1.3,2.4-1.9,3.6c-1.1,1.8-2.4,4-3.6,6.1h-2.4V25.4H216.1z"/>
		<path d="M235.3,25.4v1.7h-3.6V37h-2.1v-9.9H226v-1.7C226,25.4,235.3,25.4,235.3,25.4z"/>
		<path d="M238.5,31.6c0.1,2.9,1.9,4,4,4c1.5,0,2.4-0.3,3.2-0.6l0.4,1.5c-0.7,0.3-2,0.7-3.9,0.7c-3.6,0-5.7-2.3-5.7-5.9
			c0-3.5,2.1-6.3,5.4-6.3c3.8,0,4.8,3.3,4.8,5.5c0,0.4-0.1,0.8-0.1,1L238.5,31.6L238.5,31.6z M244.7,30.1c0-1.3-0.6-3.4-2.9-3.4
			c-2.1,0-3.1,2-3.2,3.4H244.7z"/>
		<path d="M263,36.6c-0.5,0.3-1.8,0.7-3.3,0.7c-3.5,0-5.8-2.4-5.8-5.9c0-3.6,2.5-6.2,6.2-6.2c1.3,0,2.4,0.3,2.9,0.6l-0.5,1.6
			c-0.5-0.3-1.3-0.5-2.5-0.5c-2.7,0-4.1,2-4.1,4.4c0,2.7,1.7,4.3,4,4.3c1.2,0,2-0.3,2.6-0.6L263,36.6z"/>
		<path d="M265.4,25.5c0.8-0.1,2.3-0.3,3.7-0.3c1.9,0,5.2,0.3,5.2,2.9c0,1.4-1.1,2.3-2.4,2.6v0c1.7,0.2,3,1.2,3,2.9
			c0,3-3.8,3.4-6.1,3.4c-1.3,0-2.6-0.1-3.3-0.1L265.4,25.5L265.4,25.5z M267.4,35.6c0.6,0.1,1,0.1,1.7,0.1c1.4,0,3.5-0.3,3.5-2
			s-1.7-2-3.7-2h-1.5L267.4,35.6L267.4,35.6z M267.4,30.3h1.6c1.6,0,3.2-0.5,3.2-1.8c0-1.1-1-1.7-3.1-1.7c-0.7,0-1.1,0-1.6,0.1V30.3
			z"/>
		<path d="M287.9,31.1c0,4.3-3,6.2-5.8,6.2c-3.1,0-5.6-2.3-5.6-6c0-3.9,2.5-6.2,5.8-6.2C285.7,25.1,287.9,27.5,287.9,31.1z
			 M278.7,31.2c0,2.5,1.5,4.5,3.5,4.5c2,0,3.5-1.9,3.5-4.5c0-2-1-4.5-3.5-4.5C279.8,26.7,278.7,29,278.7,31.2z"/>
		<path d="M291.8,31.6c0,2.9,1.9,4,4,4c1.5,0,2.4-0.3,3.2-0.6l0.4,1.5c-0.7,0.3-2,0.7-3.9,0.7c-3.6,0-5.7-2.3-5.7-5.9
			c0-3.5,2.1-6.3,5.5-6.3c3.8,0,4.8,3.3,4.8,5.5c0,0.4,0,0.8-0.1,1L291.8,31.6L291.8,31.6z M298,30.1c0-1.3-0.5-3.4-2.9-3.4
			c-2.1,0-3.1,2-3.2,3.4H298z"/>
	</g>
</g>
</svg>
